<svg width="48" height="32" viewBox="0 0 48 32" fill="none" xmlns="http://www.w3.org/2000/svg">
<path d="M31.9867 32C40.8159 32 47.9734 24.8366 47.9734 16C47.9734 7.16344 40.8159 0 31.9867 0C23.1575 0 16 7.16344 16 16C16 24.8366 23.1575 32 31.9867 32Z" fill="#462380"/>
<path d="M32 30C39.732 30 46 23.732 46 16C46 8.26801 39.732 2 32 2C24.268 2 18 8.26801 18 16C18 23.732 24.268 30 32 30Z" fill="white"/>
<path fill-rule="evenodd" clip-rule="evenodd" d="M15.9867 32C18.9013 32 21.6338 31.2194 23.9867 29.8556C19.2119 27.0882 16 21.9195 16 16C16 10.0805 19.2119 4.91179 23.9867 2.14437C21.6338 0.780624 18.9013 0 15.9867 0C7.15747 0 0 7.16344 0 16C0 24.8366 7.15747 32 15.9867 32Z" fill="#462380"/>
</svg>
