<svg width="111" height="48" viewBox="0 0 111 48" fill="none" xmlns="http://www.w3.org/2000/svg">
<path d="M15.9867 40C24.8159 40 31.9734 32.8366 31.9734 24C31.9734 15.1634 24.8159 8 15.9867 8C7.15749 8 0 15.1634 0 24C0 32.8366 7.15749 40 15.9867 40Z" fill="#462380"/>
<path d="M46.96 24C46.96 32.2851 40.2495 39 31.9734 39C23.6972 39 16.9867 32.2851 16.9867 24C16.9867 15.7149 23.6972 9 31.9734 9C40.2495 9 46.96 15.7149 46.96 24Z" fill="white" stroke="#462380" stroke-width="2"/>
<path d="M25.8359 24.7598H22.1836L22.1641 22.748H25.2305C25.7708 22.748 26.2135 22.6797 26.5586 22.543C26.9036 22.3997 27.1608 22.1947 27.3301 21.9277C27.5059 21.6543 27.5938 21.3223 27.5938 20.9316C27.5938 20.4889 27.5091 20.1309 27.3398 19.8574C27.1771 19.584 26.9199 19.3854 26.5684 19.2617C26.2233 19.138 25.7773 19.0762 25.2305 19.0762H23.1992V31H20.2695V16.7812H25.2305C26.0573 16.7812 26.7962 16.8594 27.4473 17.0156C28.1048 17.1719 28.6615 17.4095 29.1172 17.7285C29.5729 18.0475 29.9212 18.4512 30.1621 18.9395C30.403 19.4212 30.5234 19.9941 30.5234 20.6582C30.5234 21.2441 30.39 21.7845 30.123 22.2793C29.8626 22.7741 29.4492 23.1777 28.8828 23.4902C28.3229 23.8027 27.5905 23.9753 26.6855 24.0078L25.8359 24.7598ZM25.709 31H21.3828L22.5254 28.7148H25.709C26.2233 28.7148 26.6432 28.6335 26.9688 28.4707C27.2943 28.3014 27.5352 28.0736 27.6914 27.7871C27.8477 27.5007 27.9258 27.1719 27.9258 26.8008C27.9258 26.3841 27.8542 26.0228 27.7109 25.7168C27.5742 25.4108 27.3529 25.1764 27.0469 25.0137C26.7409 24.8444 26.3372 24.7598 25.8359 24.7598H23.0137L23.0332 22.748H26.5488L27.2227 23.5391C28.0885 23.526 28.7852 23.679 29.3125 23.998C29.8464 24.3105 30.2337 24.7174 30.4746 25.2188C30.722 25.7201 30.8457 26.2572 30.8457 26.8301C30.8457 27.7415 30.6471 28.5098 30.25 29.1348C29.8529 29.7533 29.2702 30.2188 28.502 30.5312C27.7402 30.8438 26.8092 31 25.709 31ZM38.8242 19.2129L34.957 31H31.8418L37.125 16.7812H39.1074L38.8242 19.2129ZM42.0371 31L38.1602 19.2129L37.8477 16.7812H39.8496L45.1621 31H42.0371ZM41.8613 25.707V28.002H34.3516V25.707H41.8613Z" fill="#462380"/>
<path d="M55.6719 27.2793C55.6719 27.0254 55.6328 26.7975 55.5547 26.5957C55.4831 26.3874 55.3464 26.1986 55.1445 26.0293C54.9427 25.8535 54.6595 25.681 54.2949 25.5117C53.9303 25.3424 53.4583 25.1667 52.8789 24.9844C52.2344 24.776 51.6224 24.5417 51.043 24.2812C50.4701 24.0208 49.9622 23.7181 49.5195 23.373C49.0833 23.0215 48.7383 22.6146 48.4844 22.1523C48.237 21.6901 48.1133 21.153 48.1133 20.541C48.1133 19.9486 48.2435 19.4115 48.5039 18.9297C48.7643 18.4414 49.1289 18.0247 49.5977 17.6797C50.0664 17.3281 50.6198 17.0579 51.2578 16.8691C51.9023 16.6803 52.6087 16.5859 53.377 16.5859C54.4251 16.5859 55.3398 16.7747 56.1211 17.1523C56.9023 17.5299 57.5078 18.0475 57.9375 18.7051C58.3737 19.3626 58.5918 20.1146 58.5918 20.9609H55.6816C55.6816 20.5443 55.5938 20.1797 55.418 19.8672C55.2487 19.5482 54.9883 19.2975 54.6367 19.1152C54.2917 18.9329 53.8555 18.8418 53.3281 18.8418C52.8203 18.8418 52.3971 18.9199 52.0586 19.0762C51.7201 19.2259 51.4661 19.431 51.2969 19.6914C51.1276 19.9453 51.043 20.2318 51.043 20.5508C51.043 20.7917 51.1016 21.0098 51.2188 21.2051C51.3424 21.4004 51.5247 21.5827 51.7656 21.752C52.0065 21.9212 52.3027 22.0807 52.6543 22.2305C53.0059 22.3802 53.4128 22.5267 53.875 22.6699C54.6497 22.9043 55.3301 23.168 55.916 23.4609C56.5085 23.7539 57.0033 24.0827 57.4004 24.4473C57.7975 24.8118 58.097 25.2253 58.2988 25.6875C58.5007 26.1497 58.6016 26.6738 58.6016 27.2598C58.6016 27.8783 58.4811 28.4316 58.2402 28.9199C57.9993 29.4082 57.651 29.8216 57.1953 30.1602C56.7396 30.4987 56.196 30.7559 55.5645 30.9316C54.9329 31.1074 54.2266 31.1953 53.4453 31.1953C52.7422 31.1953 52.0488 31.1042 51.3652 30.9219C50.6816 30.7331 50.0599 30.4499 49.5 30.0723C48.9466 29.6947 48.5039 29.2129 48.1719 28.627C47.8398 28.041 47.6738 27.3477 47.6738 26.5469H50.6133C50.6133 26.9896 50.6816 27.3639 50.8184 27.6699C50.9551 27.9759 51.1471 28.2233 51.3945 28.4121C51.6484 28.6009 51.9479 28.7376 52.293 28.8223C52.6445 28.9069 53.0286 28.9492 53.4453 28.9492C53.9531 28.9492 54.3698 28.8776 54.6953 28.7344C55.0273 28.5911 55.2715 28.3926 55.4277 28.1387C55.5905 27.8848 55.6719 27.5983 55.6719 27.2793ZM70.1348 28.7148V31H62.5664V28.7148H70.1348ZM63.5234 16.7812V31H60.5938V16.7812H63.5234ZM69.1484 22.5723V24.7988H62.5664V22.5723H69.1484ZM70.125 16.7812V19.0762H62.5664V16.7812H70.125ZM76.9707 28.0312L80.3203 16.7812H83.582L78.6309 31H76.4824L76.9707 28.0312ZM73.8848 16.7812L77.2246 28.0312L77.7324 31H75.5645L70.6426 16.7812H73.8848ZM94.4512 28.7148V31H86.8828V28.7148H94.4512ZM87.8398 16.7812V31H84.9102V16.7812H87.8398ZM93.4648 22.5723V24.7988H86.8828V22.5723H93.4648ZM94.4414 16.7812V19.0762H86.8828V16.7812H94.4414ZM105.301 28.7148V31H98.1426V28.7148H105.301ZM99.0898 16.7812V31H96.1602V16.7812H99.0898Z" fill="#462380"/>
</svg>
